<?xml version="1.0" encoding="iso-8859-1"?>
<!-- Uploaded to: SVG Repo, www.svgrepo.com, Generator: SVG Repo Mixer Tools -->
<!DOCTYPE svg PUBLIC "-//W3C//DTD SVG 1.1//EN" "http://www.w3.org/Graphics/SVG/1.1/DTD/svg11.dtd">
<svg fill="#000000" height="800px" width="800px" version="1.1" id="Capa_1" xmlns="http://www.w3.org/2000/svg" xmlns:xlink="http://www.w3.org/1999/xlink" 
	 viewBox="0 0 512 512" xml:space="preserve">
<path d="M256,0C114.844,0,0,114.844,0,256s114.844,256,256,256s256-114.844,256-256S397.156,0,256,0z M448,256
	c0,32.625-8.23,63.344-22.645,90.281l-67.123-44.75C364.461,287.602,368,272.219,368,256c0-16.211-3.539-31.594-9.768-45.523
	l67.123-44.75C439.77,192.656,448,223.383,448,256z M86.644,346.281C72.23,319.344,64,288.625,64,256
	c0-32.617,8.23-63.344,22.644-90.273l67.123,44.75C147.539,224.406,144,239.789,144,256c0,16.219,3.539,31.602,9.768,45.531
	L86.644,346.281z M208,256c0-26.469,21.531-48,48-48c26.469,0,48,21.531,48,48c0,26.469-21.531,48-48,48
	C229.531,304,208,282.469,208,256z M346.277,86.648l-44.75,67.125C287.6,147.547,272.219,144,256,144
	c-16.219,0-31.6,3.547-45.527,9.773l-44.75-67.125C192.656,72.234,223.375,64,256,64S319.344,72.234,346.277,86.648z
	 M165.723,425.359l44.75-67.125C224.4,364.469,239.781,368,256,368c16.219,0,31.6-3.531,45.527-9.766l44.75,67.125
	C319.344,439.773,288.625,448,256,448S192.656,439.773,165.723,425.359z"/>
</svg>