<svg version="1.1" xmlns="http://www.w3.org/2000/svg" viewBox="0 0 250.39999389648438 163.20001220703125" width="250.39999389648438" height="163.20001220703125">
  <!-- svg-source:excalidraw -->
  
  <defs>
    <style class="style-fonts">
      @font-face {
        font-family: "Virgil";
        src: url("https://excalidraw.com/Virgil.woff2");
      }
      @font-face {
        font-family: "Cascadia";
        src: url("https://excalidraw.com/Cascadia.woff2");
      }
      @font-face {
        font-family: "Assistant";
        src: url("https://excalidraw.com/Assistant-Regular.woff2");
      }
    </style>
    
  </defs>
  <rect x="0" y="0" width="250.39999389648438" height="163.20001220703125" fill="#f1d6cf"></rect><g stroke-linecap="round" transform="translate(10 10.800033569335938) rotate(0 113.1999969482422 71.19998931884766)"><path d="M32 0 C65.26 -2.33, 102.55 -2.95, 194.4 0 M32 0 C66.6 -0.22, 100.59 0.53, 194.4 0 M194.4 0 C216.32 1.34, 228.08 12.5, 226.4 32 M194.4 0 C217.95 2.27, 226.35 8.73, 226.4 32 M226.4 32 C228.31 56.99, 228.86 79.77, 226.4 110.4 M226.4 32 C226.51 62.11, 226.55 93.54, 226.4 110.4 M226.4 110.4 C226.79 130.69, 214.11 142.15, 194.4 142.4 M226.4 110.4 C224.53 132.99, 217.36 140.65, 194.4 142.4 M194.4 142.4 C138.33 143.39, 81.27 143.59, 32 142.4 M194.4 142.4 C130.9 140.8, 68.87 140.7, 32 142.4 M32 142.4 C11.97 141.96, 0.35 132.58, 0 110.4 M32 142.4 C10.07 140.3, -1.04 131.74, 0 110.4 M0 110.4 C-1.59 82.2, 0.7 58.22, 0 32 M0 110.4 C-0.19 93.89, -0.99 77.1, 0 32 M0 32 C1.01 9.29, 8.94 0.24, 32 0 M0 32 C1.42 11.36, 11.33 1.45, 32 0" stroke="#1971c2" stroke-width="2" fill="none"></path></g><g stroke-linecap="round" transform="translate(11.5999755859375 10) rotate(0 114.40000915527344 71.60000610351562)"><path d="M32 0 C80.33 -2.27, 128.45 -3.36, 196.8 0 M32 0 C68.93 -2.11, 107.71 -0.86, 196.8 0 M196.8 0 C219.52 0.76, 228.49 11.27, 228.8 32 M196.8 0 C219.6 -1.37, 229.83 10.99, 228.8 32 M228.8 32 C228.24 59.91, 226.56 91.21, 228.8 111.2 M228.8 32 C229.35 53.17, 228.85 72.83, 228.8 111.2 M228.8 111.2 C230.25 130.97, 216.99 145.11, 196.8 143.2 M228.8 111.2 C229.5 133.15, 217.65 143.46, 196.8 143.2 M196.8 143.2 C141.43 142.15, 82.6 143.09, 32 143.2 M196.8 143.2 C153.07 142.64, 109.13 141.97, 32 143.2 M32 143.2 C12.3 141.23, 1.33 131.32, 0 111.2 M32 143.2 C8.42 142.69, -1.32 132.8, 0 111.2 M0 111.2 C-2.39 81.34, -0.55 54.32, 0 32 M0 111.2 C0.02 80.73, -0.75 49.81, 0 32 M0 32 C-1.51 12.21, 11.61 -0.17, 32 0 M0 32 C-0.68 9.99, 12.05 1.26, 32 0" stroke="#1971c2" stroke-width="2" fill="none"></path></g><g transform="translate(28.173417496165996 31.00001525878895) rotate(0 94.71991729736328 50.00000000000006)"><text x="94.71991729736328" y="0" font-family="Virgil, Segoe UI Emoji" font-size="20px" fill="#1971c2" text-anchor="middle" style="white-space: pre;" direction="ltr" dominant-baseline="text-before-edge">Tired of wondering </text><text x="94.71991729736328" y="25" font-family="Virgil, Segoe UI Emoji" font-size="20px" fill="#1971c2" text-anchor="middle" style="white-space: pre;" direction="ltr" dominant-baseline="text-before-edge">what's behind</text><text x="94.71991729736328" y="50" font-family="Virgil, Segoe UI Emoji" font-size="20px" fill="#1971c2" text-anchor="middle" style="white-space: pre;" direction="ltr" dominant-baseline="text-before-edge"> your favourite</text><text x="94.71991729736328" y="75" font-family="Virgil, Segoe UI Emoji" font-size="20px" fill="#1971c2" text-anchor="middle" style="white-space: pre;" direction="ltr" dominant-baseline="text-before-edge"> products </text></g><g transform="translate(173.199951171875 105.79998779296875) rotate(0 8.387992858886719 22.5)"><text x="0" y="0" font-family="Virgil, Segoe UI Emoji" font-size="36px" fill="#1971c2" text-anchor="start" style="white-space: pre;" direction="ltr" dominant-baseline="text-before-edge">?</text></g></svg>