<svg width="62" height="72" viewBox="0 0 62 72" fill="none" xmlns="http://www.w3.org/2000/svg"><g filter="url(#filter0_b_16812_44263)"><path d="M8.88709 72H52.3129C57.2211 72 61.2 68.5462 61.2 64.2857V21.2957C61.2 20.7597 61.0095 20.2368 60.6544 19.7983C60.0708 19.0776 59.1071 18.6618 58.0929 18.6933L49.1962 19.0004C44.1668 19.1563 39.9919 15.6594 39.9919 11.291V1.68302C39.9919 1.04554 39.577 0.462772 38.9201 0.177681C38.6509 0.060833 38.354 0 38.053 0H8.88709C3.97889 0 0 3.4538 0 7.71428V64.2857C0 68.5462 3.97889 72 8.88709 72Z" fill="#6B52AD" fill-opacity="0.6"></path></g><g filter="url(#filter1_d_16812_44263)"><path d="M40.4062 13V4.88405C40.4062 4.17813 41.2539 3.8182 41.7618 4.30845L54.1652 16.2805C54.8124 16.9051 54.3702 18 53.4707 18H45.4062C42.6448 18 40.4062 15.7614 40.4062 13Z" fill="white" fill-opacity="0.04" shape-rendering="crispEdges"></path></g><g filter="url(#filter2_b_16812_44263)"><path fill-rule="evenodd" clip-rule="evenodd" d="M1.44562 8.21052C1.44562 4.3736 5.00537 1.26316 9.39653 1.26316H37.8622C38.0438 1.26316 38.2229 1.30009 38.3853 1.37104C38.5799 1.45608 38.7393 1.58475 38.8512 1.73954V17C38.8512 19.2091 40.642 21 42.8512 21H59.6614C59.7227 21.1786 59.7544 21.3651 59.7544 21.5537V63.7894C59.7544 67.6264 56.1946 70.7368 51.8035 70.7368H9.39653C5.00537 70.7368 1.44562 67.6264 1.44562 63.7894V8.21052ZM61.1446 20.9998C61.1813 21.1818 61.2 21.3671 61.2 21.5537V63.7894C61.2 68.324 56.993 72 51.8035 72H9.39653C4.20697 72 0 68.324 0 63.7894V8.21052C0 3.67598 4.20697 0 9.39653 0H37.8622C38.202 0 38.5378 0.0578403 38.8512 0.169688V1.14441e-05L39.2006 0.321906C39.6202 0.54019 39.9551 0.853386 40.1764 1.22075L59.1266 18.6768C59.6825 18.9095 60.1705 19.265 60.536 19.7193C60.69 19.9108 60.8186 20.1153 60.9202 20.329L61.2718 20.6529C61.4038 20.7744 61.3211 20.9932 61.1446 20.9998Z" fill="#F2F2F2" fill-opacity="0.4"></path></g><path fill-rule="evenodd" clip-rule="evenodd" d="M39.2762 39.1166H32.0834V31.9238C32.0834 30.9953 31.3283 30.2402 30.3998 30.2402C29.4713 30.2402 28.7162 30.9953 28.7162 31.9238V39.1166H21.5234C20.5949 39.1166 19.8398 39.8717 19.8398 40.8002C19.8398 41.7287 20.5949 42.4838 21.5234 42.4838H28.7162V49.6766C28.7162 50.6051 29.4713 51.3602 30.3998 51.3602C31.3283 51.3602 32.0834 50.6051 32.0834 49.6766V42.4838H39.2762C40.2047 42.4838 40.9598 41.7287 40.9598 40.8002C40.9598 39.8717 40.2047 39.1166 39.2762 39.1166Z" fill="white"></path><defs><filter id="filter0_b_16812_44263" x="-24" y="-24" width="109.199" height="120" filterUnits="userSpaceOnUse" color-interpolation-filters="sRGB"><feFlood flood-opacity="0" result="BackgroundImageFix"></feFlood><feGaussianBlur in="BackgroundImageFix" stdDeviation="12"></feGaussianBlur><feComposite in2="SourceAlpha" operator="in" result="effect1_backgroundBlur_16812_44263"></feComposite><feBlend mode="normal" in="SourceGraphic" in2="effect1_backgroundBlur_16812_44263" result="shape"></feBlend></filter><filter id="filter1_d_16812_44263" x="34.4062" y="0.0825195" width="24.0664" height="23.9175" filterUnits="userSpaceOnUse" color-interpolation-filters="sRGB"><feFlood flood-opacity="0" result="BackgroundImageFix"></feFlood><feColorMatrix in="SourceAlpha" type="matrix" values="0 0 0 0 0 0 0 0 0 0 0 0 0 0 0 0 0 0 127 0" result="hardAlpha"></feColorMatrix><feOffset dx="-1" dy="1"></feOffset><feGaussianBlur stdDeviation="2.5"></feGaussianBlur><feComposite in2="hardAlpha" operator="out"></feComposite><feColorMatrix type="matrix" values="0 0 0 0 0.0501389 0 0 0 0 0.303845 0 0 0 0 0.633333 0 0 0 0.24 0"></feColorMatrix><feBlend mode="normal" in2="BackgroundImageFix" result="effect1_dropShadow_16812_44263"></feBlend><feBlend mode="normal" in="SourceGraphic" in2="effect1_dropShadow_16812_44263" result="shape"></feBlend></filter><filter id="filter2_b_16812_44263" x="-24" y="-24" width="109.336" height="120" filterUnits="userSpaceOnUse" color-interpolation-filters="sRGB"><feFlood flood-opacity="0" result="BackgroundImageFix"></feFlood><feGaussianBlur in="BackgroundImageFix" stdDeviation="12"></feGaussianBlur><feComposite in2="SourceAlpha" operator="in" result="effect1_backgroundBlur_16812_44263"></feComposite><feBlend mode="normal" in="SourceGraphic" in2="effect1_backgroundBlur_16812_44263" result="shape"></feBlend></filter></defs></svg>