<svg width="160" height="165" viewBox="0 0 160 165" fill="none" xmlns="http://www.w3.org/2000/svg">
<path d="M33.1601 32.8145C50.2041 6.4872 88.8222 4.96944 113.36 22.6214C140.573 42.1986 142.028 79.2828 142.161 85.6297C142.623 107.71 135.163 144.418 110.367 154.066C82.81 164.789 54.1685 134.178 42.2766 114.827C39.1591 109.754 12.4047 64.8747 33.16 32.815L33.1601 32.8145Z" fill="#ECF3FE"/>
<path d="M100.327 9.40274C102.099 9.40274 103.535 7.81904 103.535 5.86543C103.535 3.91183 102.099 2.32812 100.327 2.32812C98.5555 2.32812 97.1191 3.91183 97.1191 5.86543C97.1191 7.81904 98.5555 9.40274 100.327 9.40274Z" fill="#FFF3DC"/>
<path d="M8.93778 78.5757C9.42264 76.1188 8.01145 73.6933 5.78578 73.158C3.56012 72.6228 1.36279 74.1806 0.877928 76.6374C0.393062 79.0943 1.80426 81.5198 4.02993 82.0551C6.25559 82.5903 8.45291 81.0325 8.93778 78.5757Z" fill="#FFF3DC"/>
<path d="M154.867 147.972C157.702 147.972 160 145.438 160 142.312C160 139.186 157.702 136.652 154.867 136.652C152.032 136.652 149.734 139.186 149.734 142.312C149.734 145.438 152.032 147.972 154.867 147.972Z" fill="#FFF3DC"/>
<path d="M118.473 29.2105L44.5059 29.5703L44.9405 135.683L118.908 135.323L118.473 29.2105Z" fill="#A1C1E4" fill-opacity="0.5"/>
<path d="M122.529 29.3906H50.0156V130.203H122.529V29.3906Z" fill="white"/>
<path d="M107.79 40.0508H64.7578V52.7194H107.79V40.0508Z" fill="#A0B1E8"/>
<path d="M66.5793 58.1602H57.2676V60.3916H66.5793V58.1602Z" fill="#E4ECF9"/>
<path d="M90.3524 58.1602H72.125V60.3916H90.3524V58.1602Z" fill="#E4ECF9"/>
<path d="M115.279 58.1602H109.691V60.3916H115.279V58.1602Z" fill="#E4ECF9"/>
<path d="M105.572 58.1602H93.209V60.3916H105.572V58.1602Z" fill="#E4ECF9"/>
<path d="M75.4556 64.7344H57.2676V66.9658H75.4556V64.7344Z" fill="#E4ECF9"/>
<path d="M115.279 64.7344H108.582V66.9658H115.279V64.7344Z" fill="#E4ECF9"/>
<path d="M100.972 64.7344H81.6348V66.9658H100.972V64.7344Z" fill="#E4ECF9"/>
<path d="M94.5539 71.6523H57.3398V74.4822H94.5539V71.6523Z" fill="#E4ECF9"/>
<path d="M115.081 70.2383H99.6816V73.0681H115.081V70.2383Z" fill="#E4ECF9"/>
<path d="M69.7493 77.8711H57.2676V80.1025H69.7493V77.8711Z" fill="#E4ECF9"/>
<path d="M115.085 77.3125H76.5879V80.1423H115.085V77.3125Z" fill="#E4ECF9"/>
<path d="M115.082 77.3125H112.516V80.1423H115.082V77.3125Z" fill="#E4ECF9"/>
<path d="M115.083 84.3867H98.4004V87.2166H115.083V84.3867Z" fill="#E4ECF9"/>
<path d="M91.6225 84.4453H57.2676V86.6767H91.6225V84.4453Z" fill="#E4ECF9"/>
<path d="M67.5305 91.0156H57.2676V93.2466H67.5305V91.0156Z" fill="#E4ECF9"/>
<path d="M115.083 91.4648H75.3027V94.2947H115.083V91.4648Z" fill="#E4ECF9"/>
<path d="M115.084 91.4648H111.234V94.2947H115.084V91.4648Z" fill="#E4ECF9"/>
<path d="M95.8371 97.125H57.3398V99.9548H95.8371V97.125Z" fill="#E4ECF9"/>
<path d="M80.4382 97.125H57.3398V99.9548H80.4382V97.125Z" fill="#E4ECF9"/>
<path d="M115.084 97.125H109.951V99.9548H115.084V97.125Z" fill="#E4ECF9"/>
<rect x="35.659" y="98.9266" width="51.6107" height="23.0435" rx="1.34996" fill="#E9FCF8" stroke="#088C61" stroke-width="0.899976" stroke-dasharray="3.6 3.6"/>
<g clip-path="url(#clip0_13913_74032)">
<path d="M66.1607 107.83L53.0374 114.009C53.0702 113.461 53.0988 112.899 53.1245 112.33C54.3448 111.923 55.377 110.374 56.1996 107.706C56.3018 107.827 56.4111 107.95 56.5258 108.072C57.5425 109.144 58.4879 109.583 59.3392 109.376C60.2129 109.168 60.8377 108.342 61.2373 106.873C62.0388 107.317 63.4026 107.501 65.6271 106.454C65.7927 106.376 65.9234 106.229 65.9904 106.045C66.0575 105.86 66.0554 105.654 65.9847 105.472C65.9139 105.289 65.7802 105.145 65.6131 105.071C65.446 104.998 65.259 105 65.0934 105.078C62.7028 106.204 61.6534 105.621 61.4305 105.153C61.3646 104.995 61.2507 104.867 61.1084 104.791C60.9661 104.715 60.8043 104.697 60.6509 104.738C60.4975 104.78 60.362 104.879 60.2679 105.019C60.1738 105.159 60.1268 105.331 60.1352 105.504C59.794 107.521 59.2609 107.863 59.0404 107.918C58.3379 108.089 57.0874 106.709 56.4641 105.723C56.3844 105.599 56.2724 105.504 56.1428 105.452C56.0133 105.4 55.8724 105.392 55.7389 105.43C55.6054 105.469 55.4856 105.551 55.3955 105.666C55.3055 105.781 55.2493 105.924 55.2346 106.075C54.5103 108.92 53.7533 110.129 53.1745 110.619C53.2075 108.683 53.1497 107.025 53.0013 105.676C52.7518 103.409 52.2442 101.981 51.4482 101.312C51.0353 100.961 50.3313 100.642 49.3446 101.102L49.3251 101.111C48.08 101.709 47.6032 103.478 48.0138 105.97C48.2575 107.453 48.7945 108.978 49.4874 110.158C50.1804 111.338 50.9517 112.063 51.7647 112.329C51.7321 113.131 51.6866 113.92 51.6362 114.671L49.9269 115.476C49.7613 115.554 49.6306 115.701 49.5636 115.885C49.4965 116.07 49.4986 116.276 49.5694 116.458C49.6401 116.641 49.7738 116.785 49.9409 116.858C50.108 116.932 50.295 116.93 50.4606 116.852L51.5072 116.359C51.3241 118.581 51.1255 120.164 51.1226 120.19C51.1081 120.288 51.1116 120.389 51.133 120.486C51.1543 120.583 51.193 120.674 51.2468 120.754C51.3006 120.834 51.3683 120.902 51.4462 120.953C51.524 121.004 51.6102 121.037 51.6999 121.051C51.7895 121.064 51.8807 121.058 51.9682 121.032C52.0556 121.007 52.1375 120.962 52.209 120.901C52.2805 120.84 52.3402 120.763 52.3846 120.676C52.429 120.589 52.4571 120.494 52.4675 120.395C52.4705 120.367 52.7204 118.364 52.9238 115.692L66.695 109.208C66.8606 109.13 66.9913 108.983 67.0583 108.798C67.1254 108.614 67.1233 108.408 67.0526 108.226C66.9818 108.043 66.8482 107.899 66.681 107.825C66.5139 107.751 66.327 107.754 66.1614 107.832L66.1607 107.83ZM61.4378 105.172L61.4308 105.154C61.4337 105.159 61.436 105.166 61.4378 105.172ZM49.3485 105.703C49.077 104.053 49.2851 102.757 49.872 102.481C50.2818 102.288 50.4804 102.384 50.6188 102.503C51.0307 102.851 51.9345 104.343 51.8096 110.727C50.7938 110.057 49.7173 107.944 49.3485 105.703Z" fill="#088C61"/>
</g>
<defs>
<clipPath id="clip0_13913_74032">
<rect width="22.085" height="23.6151" fill="white" transform="matrix(0.904722 -0.426003 0.361547 0.932354 42.4531 101.902)"/>
</clipPath>
</defs>
</svg>
